<svg width="16" height="16" viewBox="0 0 16 16" fill="none" xmlns="http://www.w3.org/2000/svg">
<path d="M13.1111 0C14.7066 0 16 1.2934 16 2.88889V13.1111C16 14.7066 14.7066 16 13.1111 16H2.88889C1.2934 16 0 14.7066 0 13.1111V2.88889C0 1.2934 1.2934 0 2.88889 0H13.1111ZM14.6667 4.88889H1.33333V13.1111C1.33333 13.9702 2.02978 14.6667 2.88889 14.6667H13.1111C13.9702 14.6667 14.6667 13.9702 14.6667 13.1111V4.88889ZM4.22222 10.2222C4.83588 10.2222 5.33333 10.7196 5.33333 11.3333C5.33333 11.947 4.83588 12.4444 4.22222 12.4444C3.60857 12.4444 3.11111 11.947 3.11111 11.3333C3.11111 10.7196 3.60857 10.2222 4.22222 10.2222ZM8 10.2222C8.61369 10.2222 9.11111 10.7196 9.11111 11.3333C9.11111 11.947 8.61369 12.4444 8 12.4444C7.38631 12.4444 6.88889 11.947 6.88889 11.3333C6.88889 10.7196 7.38631 10.2222 8 10.2222ZM4.22222 6.66667C4.83588 6.66667 5.33333 7.16409 5.33333 7.77778C5.33333 8.39147 4.83588 8.88889 4.22222 8.88889C3.60857 8.88889 3.11111 8.39147 3.11111 7.77778C3.11111 7.16409 3.60857 6.66667 4.22222 6.66667ZM8 6.66667C8.61369 6.66667 9.11111 7.16409 9.11111 7.77778C9.11111 8.39147 8.61369 8.88889 8 8.88889C7.38631 8.88889 6.88889 8.39147 6.88889 7.77778C6.88889 7.16409 7.38631 6.66667 8 6.66667ZM11.7778 6.66667C12.3915 6.66667 12.8889 7.16409 12.8889 7.77778C12.8889 8.39147 12.3915 8.88889 11.7778 8.88889C11.1641 8.88889 10.6667 8.39147 10.6667 7.77778C10.6667 7.16409 11.1641 6.66667 11.7778 6.66667ZM13.1111 1.33333H2.88889C2.02978 1.33333 1.33333 2.02978 1.33333 2.88889V3.55556H14.6667V2.88889C14.6667 2.02978 13.9702 1.33333 13.1111 1.33333Z" fill="#C9C9C9"/>
</svg>
