<svg width="17" height="16" viewBox="0 0 17 16" fill="none" xmlns="http://www.w3.org/2000/svg">
<path d="M8.5 0C12.9182 0 16.5 3.58142 16.5 7.99932C16.5 12.4172 12.9182 15.9986 8.5 15.9986C7.20536 15.9986 5.95426 15.6904 4.83029 15.1091L1.76963 15.9629C1.2377 16.1114 0.686064 15.8007 0.537528 15.2688C0.488368 15.0928 0.488392 14.9067 0.53756 14.7308L1.39169 11.6728C0.809096 10.5479 0.5 9.29546 0.5 7.99932C0.5 3.58142 4.08172 0 8.5 0ZM8.5 1.1999C4.74446 1.1999 1.7 4.24411 1.7 7.99932C1.7 9.17491 1.99822 10.3059 2.55842 11.309L2.67894 11.5248L1.78877 14.7119L4.97804 13.8222L5.19367 13.9424C6.19605 14.5013 7.32576 14.7988 8.5 14.7988C12.2555 14.7988 15.3 11.7545 15.3 7.99932C15.3 4.24411 12.2555 1.1999 8.5 1.1999ZM5.9 8.79926H9.49864C9.83 8.79926 10.0986 9.06787 10.0986 9.39921C10.0986 9.70294 9.87288 9.95396 9.58 9.99372L9.49864 9.99916H5.9C5.56863 9.99916 5.3 9.73054 5.3 9.39921C5.3 9.09547 5.52572 8.84445 5.81858 8.8047L5.9 8.79926ZM5.9 5.99949H11.1036C11.435 5.99949 11.7036 6.2681 11.7036 6.59944C11.7036 6.90318 11.4778 7.1542 11.185 7.19395L11.1036 7.19939H5.9C5.56863 7.19939 5.3 6.93078 5.3 6.59944C5.3 6.29571 5.52572 6.0447 5.81858 6.00497L5.9 5.99949Z" fill="#212121"/>
</svg>
