<svg width="13" height="17" viewBox="0 0 13 17" fill="none" xmlns="http://www.w3.org/2000/svg">
<path d="M6.69611 3.09575L7.47834 4.6704L9.23026 4.92143C9.40966 4.94713 9.4814 5.16576 9.35154 5.29121L8.08443 6.51551L8.38357 8.24548C8.41417 8.42261 8.22663 8.55766 8.06626 8.47386L6.50009 7.65588L4.93383 8.47386C4.77342 8.55766 4.58578 8.42252 4.61657 8.24531L4.9172 6.51551L3.64862 5.2913C3.51866 5.16589 3.59033 4.94714 3.76981 4.92143L5.52174 4.6704L6.30397 3.09575C6.38411 2.93445 6.61606 2.93445 6.69611 3.09575ZM12.5 5.94955C12.5 2.66371 9.81371 0 6.5 0C3.18629 0 0.5 2.66371 0.5 5.94955C0.5 7.57038 1.15362 9.03983 2.21375 10.1128L2.21497 16.3614L2.22092 16.4502C2.28349 16.9114 2.82713 17.1625 3.22799 16.8826L6.49923 14.5982L9.77214 16.8827L9.84886 16.929C10.2651 17.1437 10.785 16.8475 10.785 16.3614L10.7862 10.1128C11.8463 9.03983 12.5 7.57038 12.5 5.94955ZM9.49949 11.1035L9.49931 15.1332L6.86909 13.2974L6.78269 13.2465C6.57423 13.1448 6.32317 13.1618 6.12894 13.2975L3.50069 15.1328L3.5005 11.1035C4.38291 11.6094 5.40731 11.8991 6.5 11.8991C7.59269 11.8991 8.61706 11.6094 9.49949 11.1035ZM1.78571 5.94955C1.78571 3.36781 3.89637 1.2749 6.5 1.2749C9.10366 1.2749 11.2143 3.36781 11.2143 5.94955C11.2143 8.53131 9.10366 10.6242 6.5 10.6242C3.89637 10.6242 1.78571 8.53131 1.78571 5.94955Z" fill="#212121"/>
</svg>
