<svg width="13" height="15" viewBox="0 0 13 15" fill="none" xmlns="http://www.w3.org/2000/svg">
<path d="M2.75 7.6875C2.75 7.37685 3.00184 7.125 3.3125 7.125C3.62316 7.125 3.875 7.37685 3.875 7.6875C3.875 7.99815 3.62316 8.25 3.3125 8.25C3.00184 8.25 2.75 7.99815 2.75 7.6875ZM3.3125 9.375C3.00184 9.375 2.75 9.62685 2.75 9.9375C2.75 10.2481 3.00184 10.5 3.3125 10.5C3.62316 10.5 3.875 10.2481 3.875 9.9375C3.875 9.62685 3.62316 9.375 3.3125 9.375ZM2.75 12.1875C2.75 11.8769 3.00184 11.625 3.3125 11.625C3.62316 11.625 3.875 11.8769 3.875 12.1875C3.875 12.4981 3.62316 12.75 3.3125 12.75C3.00184 12.75 2.75 12.4981 2.75 12.1875ZM5.5625 7.125C5.25185 7.125 5 7.37685 5 7.6875C5 7.99815 5.25185 8.25 5.5625 8.25H9.6875C9.99815 8.25 10.25 7.99815 10.25 7.6875C10.25 7.37685 9.99815 7.125 9.6875 7.125H5.5625ZM5 9.9375C5 9.62685 5.25185 9.375 5.5625 9.375H9.6875C9.99815 9.375 10.25 9.62685 10.25 9.9375C10.25 10.2481 9.99815 10.5 9.6875 10.5H5.5625C5.25185 10.5 5 10.2481 5 9.9375ZM5.5625 11.625C5.25185 11.625 5 11.8769 5 12.1875C5 12.4981 5.25185 12.75 5.5625 12.75H9.6875C9.99815 12.75 10.25 12.4981 10.25 12.1875C10.25 11.8769 9.99815 11.625 9.6875 11.625H5.5625ZM12.0605 4.8105L7.68875 0.4395C7.6775 0.428287 7.66482 0.41856 7.65222 0.408893C7.64285 0.401753 7.63363 0.39465 7.625 0.387C7.57175 0.339 7.51925 0.29175 7.46075 0.252C7.44178 0.239205 7.42107 0.22911 7.40037 0.219052C7.38837 0.213195 7.37637 0.207352 7.36475 0.201C7.35222 0.193942 7.33977 0.186728 7.32725 0.179498C7.2866 0.155978 7.2458 0.13236 7.20275 0.114C7.055 0.0525 6.896 0.02175 6.73475 0.0105C6.71997 0.00955495 6.70535 0.00756004 6.69065 0.00555754C6.67032 0.00278254 6.64992 0 6.629 0H2C1.172 0 0.5 0.672 0.5 1.5V13.5C0.5 14.328 1.172 15 2 15H11C11.828 15 12.5 14.328 12.5 13.5V5.871C12.5 5.4735 12.3417 5.09175 12.0605 4.8105ZM11.375 13.5C11.375 13.7063 11.207 13.875 11 13.875H2C1.793 13.875 1.625 13.7063 1.625 13.5V1.5C1.625 1.29375 1.793 1.125 2 1.125H6.5V4.5C6.5 5.328 7.172 6 8 6H11.375V13.5ZM7.625 1.96575L10.5335 4.875H8C7.793 4.875 7.625 4.70625 7.625 4.5V1.96575Z" fill="#212121"/>
</svg>
