<svg width="31" height="41" viewBox="0 0 31 41" fill="none" xmlns="http://www.w3.org/2000/svg">
<path d="M2.6309 40.6924C1.53218 41.4628 0 40.6975 0 39.3784V7.01418C0 3.14034 3.22231 0 7.19726 0H23.8027C27.7776 0 31 3.14034 31 7.01418V39.3784C31 40.6975 29.4678 41.4628 28.3691 40.6924L15.5 31.6691L2.6309 40.6924Z" fill="#17D3F0"/>
<path d="M5.71582 11.5454H8.54572L10.9463 17.3991H11.0571L13.4577 11.5454H16.2876V21H14.0624V15.1924H13.9839L11.7126 20.9399H10.2907L8.01944 15.1601H7.94096V21H5.71582V11.5454Z" fill="white"/>
<path d="M17.242 11.5454H19.7949L21.7939 15.5017H21.877L23.8759 11.5454H26.4288L22.9711 17.8423V21H20.6998V17.8423L17.242 11.5454Z" fill="white"/>
</svg>
