<svg width="118" height="19" viewBox="0 0 118 19" fill="none" xmlns="http://www.w3.org/2000/svg">
<path d="M2.41477 18L0.232955 0.545454H4.89489L5.64489 11.983H5.78977L10.6818 0.545454H14.483L15.608 12.0085H15.7443L20.2784 0.545454H24.9318L16.9631 18H12.8977L11.5256 7.41477H11.3892L6.47159 18H2.41477ZM28.4091 18.2472C27.0398 18.2472 25.9034 17.9773 25 17.4375C24.1023 16.892 23.4716 16.1165 23.108 15.1108C22.7443 14.0994 22.679 12.8977 22.9119 11.5057C23.1392 10.1534 23.6023 8.97159 24.3011 7.96023C25.0057 6.94318 25.892 6.15341 26.9602 5.59091C28.0284 5.02273 29.2188 4.73864 30.5312 4.73864C31.4631 4.73864 32.2898 4.88352 33.0114 5.17329C33.733 5.46307 34.3295 5.89489 34.8011 6.46875C35.2727 7.03693 35.5938 7.7358 35.7642 8.56534C35.9347 9.39489 35.929 10.3466 35.7472 11.4205L35.5852 12.4602H24.2159L24.5994 10.0398H32.0994C32.1676 9.59659 32.1307 9.2017 31.9886 8.85511C31.8466 8.50852 31.6165 8.23864 31.2983 8.04545C30.9858 7.84659 30.6023 7.74716 30.1477 7.74716C29.6875 7.74716 29.2557 7.85511 28.8523 8.07102C28.4545 8.28125 28.1165 8.56534 27.8381 8.9233C27.5597 9.28125 27.3778 9.68466 27.2926 10.1335L26.8409 12.6136C26.75 13.1648 26.7756 13.6364 26.9176 14.0284C27.0597 14.4205 27.304 14.7216 27.6506 14.9318C27.9972 15.1364 28.4432 15.2386 28.9886 15.2386C29.3523 15.2386 29.6932 15.1903 30.0114 15.0938C30.3295 14.9915 30.6136 14.8409 30.8636 14.642C31.1193 14.4375 31.3267 14.1903 31.4858 13.9006L35.2869 14.0114C34.9801 14.8693 34.5057 15.6165 33.8636 16.2528C33.2216 16.8835 32.4375 17.375 31.5114 17.7273C30.5909 18.0739 29.5568 18.2472 28.4091 18.2472ZM43.8501 0.545454L40.9524 18H36.7848L39.6825 0.545454H43.8501ZM49.6818 18.2472C48.3011 18.2472 47.1619 17.9631 46.2642 17.3949C45.3722 16.8267 44.7472 16.0369 44.3892 15.0256C44.0312 14.0085 43.9659 12.8324 44.1932 11.4972C44.4091 10.1562 44.8665 8.98011 45.5653 7.96875C46.2642 6.9517 47.1563 6.15909 48.2415 5.59091C49.3267 5.02273 50.554 4.73864 51.9233 4.73864C53.1335 4.73864 54.1506 4.95739 54.9744 5.39489C55.804 5.83239 56.4034 6.4517 56.7727 7.25284C57.1477 8.0483 57.2585 8.98295 57.1051 10.0568H53.2102C53.2443 9.39205 53.108 8.86932 52.8011 8.48864C52.4943 8.10227 52.0483 7.90909 51.4631 7.90909C50.9688 7.90909 50.5142 8.04545 50.0994 8.31818C49.6903 8.58523 49.3409 8.98295 49.0511 9.51136C48.767 10.0341 48.5625 10.6818 48.4375 11.4545C48.3125 12.2273 48.304 12.8807 48.4119 13.4148C48.5256 13.9432 48.7386 14.3437 49.0511 14.6165C49.3693 14.8835 49.7727 15.017 50.2614 15.017C50.6477 15.017 51.0057 14.9347 51.3352 14.7699C51.6648 14.6051 51.9517 14.3636 52.196 14.0455C52.4403 13.7216 52.6307 13.3295 52.767 12.8693H56.6534C56.4318 13.9545 56.0028 14.9006 55.3665 15.7074C54.7358 16.5085 53.9375 17.1335 52.9716 17.5824C52.0057 18.0256 50.9091 18.2472 49.6818 18.2472ZM64.0277 18.2472C62.647 18.2472 61.5078 17.9631 60.6101 17.3949C59.718 16.8267 59.0902 16.0341 58.7266 15.017C58.3629 14 58.2919 12.8182 58.5135 11.4716C58.7351 10.1307 59.1925 8.95455 59.8857 7.94318C60.5788 6.93182 61.4652 6.14489 62.5447 5.58239C63.6243 5.01989 64.8487 4.73864 66.218 4.73864C67.593 4.73864 68.7266 5.02273 69.6186 5.59091C70.5163 6.15909 71.147 6.9517 71.5107 7.96875C71.88 8.9858 71.9538 10.1705 71.7322 11.5227C71.5107 12.8636 71.0504 14.0398 70.3516 15.0511C69.6527 16.0568 68.7663 16.8409 67.6925 17.4034C66.6186 17.9659 65.397 18.2472 64.0277 18.2472ZM64.4964 15.1023C65.0078 15.1023 65.4652 14.9489 65.8686 14.642C66.2777 14.3352 66.6214 13.9062 66.8999 13.3551C67.1783 12.804 67.3771 12.1648 67.4964 11.4375C67.6158 10.7216 67.6271 10.0938 67.5305 9.55398C67.4396 9.00852 67.2464 8.58523 66.951 8.28409C66.6555 7.97727 66.255 7.82386 65.7493 7.82386C65.2379 7.82386 64.7777 7.98011 64.3686 8.29261C63.9595 8.59943 63.6158 9.02841 63.3374 9.57955C63.0646 10.125 62.8686 10.7642 62.7493 11.4972C62.63 12.2131 62.6158 12.8409 62.7067 13.3807C62.7976 13.9205 62.9936 14.3438 63.2947 14.6506C63.5959 14.9517 63.9964 15.1023 64.4964 15.1023ZM72.8104 18L74.9922 4.90909H78.9553L78.5632 7.3125H78.7081C79.1058 6.51705 79.6683 5.8892 80.3956 5.42898C81.1229 4.96875 81.9354 4.73864 82.8331 4.73864C83.7365 4.73864 84.4723 4.97159 85.0405 5.4375C85.6143 5.90341 85.924 6.52841 85.9695 7.3125H86.1058C86.4808 6.53409 87.0604 5.91193 87.8445 5.44602C88.6342 4.97443 89.5149 4.73864 90.4865 4.73864C91.7138 4.73864 92.6484 5.13636 93.2905 5.93182C93.9382 6.72159 94.1456 7.80682 93.9126 9.1875L92.4467 18H88.2876L89.6172 10.142C89.7081 9.48864 89.6115 8.99148 89.3274 8.65057C89.049 8.30398 88.6428 8.13068 88.1087 8.13068C87.5348 8.13068 87.0547 8.31534 86.6683 8.68466C86.2876 9.05398 86.0518 9.55398 85.9609 10.1847L84.6399 18H80.6257L81.9638 10.0994C82.049 9.49148 81.9553 9.01136 81.6825 8.65909C81.4155 8.30682 81.0092 8.13068 80.4638 8.13068C80.1058 8.13068 79.7734 8.21875 79.4666 8.39489C79.1598 8.56534 78.9013 8.80966 78.6911 9.12784C78.4865 9.44602 78.353 9.82102 78.2905 10.2528L76.978 18H72.8104ZM101.089 18.2472C99.7195 18.2472 98.5831 17.9773 97.6797 17.4375C96.782 16.892 96.1513 16.1165 95.7876 15.1108C95.424 14.0994 95.3587 12.8977 95.5916 11.5057C95.8189 10.1534 96.282 8.97159 96.9808 7.96023C97.6854 6.94318 98.5717 6.15341 99.6399 5.59091C100.708 5.02273 101.898 4.73864 103.211 4.73864C104.143 4.73864 104.969 4.88352 105.691 5.17329C106.413 5.46307 107.009 5.89489 107.481 6.46875C107.952 7.03693 108.273 7.7358 108.444 8.56534C108.614 9.39489 108.609 10.3466 108.427 11.4205L108.265 12.4602H96.8956L97.2791 10.0398H104.779C104.847 9.59659 104.81 9.2017 104.668 8.85511C104.526 8.50852 104.296 8.23864 103.978 8.04545C103.665 7.84659 103.282 7.74716 102.827 7.74716C102.367 7.74716 101.935 7.85511 101.532 8.07102C101.134 8.28125 100.796 8.56534 100.518 8.9233C100.239 9.28125 100.058 9.68466 99.9723 10.1335L99.5206 12.6136C99.4297 13.1648 99.4553 13.6364 99.5973 14.0284C99.7393 14.4205 99.9837 14.7216 100.33 14.9318C100.677 15.1364 101.123 15.2386 101.668 15.2386C102.032 15.2386 102.373 15.1903 102.691 15.0938C103.009 14.9915 103.293 14.8409 103.543 14.642C103.799 14.4375 104.006 14.1903 104.165 13.9006L107.967 14.0114C107.66 14.8693 107.185 15.6165 106.543 16.2528C105.901 16.8835 105.117 17.375 104.191 17.7273C103.271 18.0739 102.237 18.2472 101.089 18.2472ZM117.229 0.545454L114.842 12.6562H111.365L112.976 0.545454H117.229ZM112.379 18.2472C111.76 18.2472 111.254 18.0312 110.862 17.5994C110.47 17.1676 110.3 16.6449 110.351 16.0312C110.408 15.429 110.675 14.9148 111.152 14.4886C111.629 14.0625 112.175 13.8494 112.788 13.8494C113.374 13.8494 113.865 14.0625 114.263 14.4886C114.666 14.9148 114.839 15.429 114.783 16.0312C114.749 16.4403 114.609 16.8125 114.365 17.1477C114.126 17.483 113.831 17.75 113.479 17.9489C113.126 18.1477 112.76 18.2472 112.379 18.2472Z" fill="#17D3F0"/>
</svg>
