<svg width="63" height="78" viewBox="0 0 63 78" fill="none" xmlns="http://www.w3.org/2000/svg">
<path d="M15.75 30.225C15.75 28.6096 17.0722 27.3 18.7031 27.3H44.2969C45.9278 27.3 47.25 28.6096 47.25 30.225C47.25 31.8404 45.9278 33.15 44.2969 33.15H18.7031C17.0722 33.15 15.75 31.8404 15.75 30.225ZM22.6406 39C18.835 39 15.75 42.0556 15.75 45.825V55.575C15.75 59.3444 18.835 62.4 22.6406 62.4H40.3594C44.165 62.4 47.25 59.3444 47.25 55.575V45.825C47.25 42.0556 44.165 39 40.3594 39H22.6406ZM21.6562 45.825C21.6562 45.2864 22.097 44.85 22.6406 44.85H40.3594C40.9031 44.85 41.3438 45.2864 41.3438 45.825V55.575C41.3438 56.1136 40.9031 56.55 40.3594 56.55H22.6406C22.097 56.55 21.6562 56.1136 21.6562 55.575V45.825ZM38.3906 0C42.9538 0 46.711 3.41679 47.1968 7.80815C47.1964 7.80468 47.1961 7.80125 47.1957 7.79782L54.1406 7.8C59.0334 7.8 63 11.7287 63 16.575V69.225C63 74.0711 59.0334 78 54.1406 78H8.85938C3.96648 78 0 74.0711 0 69.225V16.575C0 11.7287 3.96648 7.8 8.85938 7.8L15.8043 7.79782C16.295 3.41141 20.0499 0 24.6094 0H38.3906ZM47.2295 8.17421L47.25 8.775C47.25 8.57306 47.2433 8.37272 47.2295 8.17421ZM38.3906 17.55H24.6094C21.538 17.55 18.8316 16.002 17.2423 13.6506L8.85938 13.65C7.22842 13.65 5.90625 14.9596 5.90625 16.575V69.225C5.90625 70.8404 7.22842 72.15 8.85938 72.15H54.1406C55.7715 72.15 57.0938 70.8404 57.0938 69.225V16.575C57.0938 14.9596 55.7715 13.65 54.1406 13.65L45.7577 13.6508C44.1681 16.0021 41.4619 17.55 38.3906 17.55ZM38.3906 5.85H24.6094C22.9784 5.85 21.6562 7.15958 21.6562 8.775C21.6562 10.3904 22.9784 11.7 24.6094 11.7H38.3906C40.0215 11.7 41.3438 10.3904 41.3438 8.775C41.3438 7.15958 40.0215 5.85 38.3906 5.85Z" fill="#000" fill-opacity="0.4"/>
</svg>
