<svg width="71" height="78" viewBox="0 0 71 78" fill="none" xmlns="http://www.w3.org/2000/svg">
<path d="M36.4342 0C40.7648 0 44.3305 3.25405 44.7917 7.43633C44.7913 7.43303 44.7909 7.42976 44.7905 7.42649L51.3816 7.42857C56.025 7.42857 59.7895 11.1702 59.7895 15.7857V35.279C58.0175 34.5443 56.1393 34.0125 54.1842 33.7123V15.7857C54.1842 14.2472 52.9294 13 51.3816 13L43.4258 13.0007C41.9173 15.2401 39.3489 16.7143 36.4342 16.7143H23.3553C20.4404 16.7143 17.872 15.24 16.3636 13.0006L8.4079 13C6.86006 13 5.60526 14.2472 5.60526 15.7857V65.9286C5.60526 67.467 6.86006 68.7143 8.4079 68.7143H28.894C29.9672 70.7609 31.3267 72.6355 32.9201 74.2857H8.4079C3.76435 74.2857 0 70.5439 0 65.9286V15.7857C0 11.1702 3.76435 7.42857 8.4079 7.42857L14.9989 7.42649C15.4646 3.24896 19.0282 0 23.3553 0H36.4342ZM44.8227 7.78496L44.8421 8.35714C44.8421 8.16482 44.8358 7.97401 44.8227 7.78496ZM36.4342 5.57143H23.3553C21.8074 5.57143 20.5526 6.81865 20.5526 8.35714C20.5526 9.89564 21.8074 11.1429 23.3553 11.1429H36.4342C37.982 11.1429 39.2368 9.89564 39.2368 8.35714C39.2368 6.81865 37.982 5.57143 36.4342 5.57143ZM71 57.5714C71 68.8539 61.7984 78 50.4474 78C39.0963 78 29.8947 68.8539 29.8947 57.5714C29.8947 46.2889 39.0963 37.1429 50.4474 37.1429C61.7984 37.1429 71 46.2889 71 57.5714ZM62.9792 48.8295C62.2494 48.1045 61.0664 48.1045 60.3366 48.8295L46.7105 62.3736L40.5582 56.2581C39.8284 55.533 38.6453 55.533 37.9155 56.2581C37.1861 56.9835 37.1861 58.1594 37.9155 58.8848L45.3892 66.3134C46.119 67.0384 47.3021 67.0384 48.0319 66.3134L62.9792 51.4562C63.7087 50.7308 63.7087 49.5549 62.9792 48.8295Z" fill="#000" fill-opacity="0.4"/>
</svg>
