<svg width="9" height="9" viewBox="0 0 9 9" fill="none" xmlns="http://www.w3.org/2000/svg">
<path d="M8.61569 2.68543L6.31459 0.384295C5.68168 -0.248605 4.61474 -0.0754633 4.21443 0.725099L3.05314 3.04775C3.01132 3.13138 2.93842 3.19531 2.85003 3.22584L0.863377 3.91213C0.447236 4.0559 0.325207 4.58567 0.636523 4.897L2.11688 6.37736L3.81992e-05 8.49421L0 9H0.505806L2.62265 6.8831L4.103 8.36351C4.41433 8.67479 4.9441 8.55277 5.08787 8.13663L5.77419 6.14996C5.80471 6.0616 5.86865 5.98869 5.95224 5.94687L8.2749 4.78556C9.07547 4.38525 9.24861 3.31832 8.61569 2.68543Z" fill="#616161"/>
</svg>
