<svg width="16" height="20" viewBox="0 0 16 20" fill="none" xmlns="http://www.w3.org/2000/svg">
<path d="M13.0303 9.0303C13.3232 8.7374 13.3232 8.2626 13.0303 7.96967C12.7374 7.67678 12.2626 7.67678 11.9697 7.96967L7 12.9393L5.03033 10.9697C4.73744 10.6768 4.26256 10.6768 3.96967 10.9697C3.67678 11.2626 3.67678 11.7374 3.96967 12.0303L6.4697 14.5303C6.7626 14.8232 7.2374 14.8232 7.5303 14.5303L13.0303 9.0303ZM11.994 2.08449C11.9093 0.91913 10.937 0 9.75 0H6.25C5.09205 0 4.13841 0.87472 4.01379 1.99944L2.25 2C1.00736 2 0 3.00736 0 4.25V17.75C0 18.9926 1.00736 20 2.25 20H13.75C14.9926 20 16 18.9926 16 17.75V4.25C16 3.00736 14.9926 2 13.75 2L11.9862 1.99944C11.9893 2.02764 11.9919 2.05599 11.994 2.08449ZM11.9948 2.09595L12 2.25C12 2.19822 11.9983 2.14685 11.9948 2.09595ZM6.25 4.5H9.75C10.53 4.5 11.2174 4.10307 11.621 3.50016L13.75 3.5C14.1642 3.5 14.5 3.83579 14.5 4.25V17.75C14.5 18.1642 14.1642 18.5 13.75 18.5H2.25C1.83579 18.5 1.5 18.1642 1.5 17.75V4.25C1.5 3.83579 1.83579 3.5 2.25 3.5L4.37902 3.5002C4.78267 4.1031 5.46997 4.5 6.25 4.5ZM6.25 1.5H9.75C10.1642 1.5 10.5 1.83579 10.5 2.25C10.5 2.66421 10.1642 3 9.75 3H6.25C5.83579 3 5.5 2.66421 5.5 2.25C5.5 1.83579 5.83579 1.5 6.25 1.5Z" fill="#0E0E0E" fill-opacity="0.85"/>
</svg>
