<svg width="18" height="17" viewBox="0 0 18 17" fill="none" xmlns="http://www.w3.org/2000/svg">
<path d="M8.01886 0.259162C8.95393 -0.269803 10.1212 0.0375589 10.6947 0.939063L10.7692 1.06566L17.7467 13.9321C17.9129 14.2385 18 14.5831 18 14.9334C18 16.0271 17.1681 16.9225 16.1152 16.9952L15.9766 17H2.02374C1.68084 17 1.34356 16.911 1.04357 16.7414C0.108472 16.2125 -0.255771 15.0388 0.188075 14.0639L0.253633 13.9323L7.22912 1.06587C7.41302 0.726617 7.68676 0.447066 8.01886 0.259162ZM16.5666 14.5996L9.58926 1.73321C9.40878 1.40039 8.99826 1.28003 8.67245 1.46437C8.58945 1.51134 8.51733 1.57551 8.46058 1.65236L8.40924 1.73328L1.43371 14.5997C1.25326 14.9325 1.37115 15.3517 1.69702 15.536C1.77201 15.5785 1.854 15.6057 1.93853 15.6168L2.02374 15.6223H15.9766C16.3491 15.6223 16.6511 15.3138 16.6511 14.9334C16.6511 14.8458 16.6348 14.7593 16.6032 14.6784L16.5666 14.5996L9.58926 1.73321L16.5666 14.5996ZM9.00006 12.4012C9.49601 12.4012 9.89808 12.8119 9.89808 13.3184C9.89808 13.8251 9.49601 14.2357 9.00006 14.2357C8.50402 14.2357 8.10195 13.8251 8.10195 13.3184C8.10195 12.8119 8.50402 12.4012 9.00006 12.4012ZM8.99628 5.51051C9.33765 5.51023 9.62011 5.76916 9.66498 6.10535L9.67128 6.19882L9.67451 10.3334C9.67478 10.714 9.37308 11.0226 9.0006 11.0229C8.65914 11.0231 8.37668 10.7642 8.33181 10.428L8.3256 10.3345L8.32237 6.19993C8.32201 5.81948 8.62371 5.51081 8.99628 5.51051Z" fill="#0E0E0E" fill-opacity="0.85"/>
</svg>
