<svg width="16" height="13" viewBox="0 0 16 13" fill="none" xmlns="http://www.w3.org/2000/svg">
<path d="M1.8 0C0.805888 0 0 0.81848 0 1.82812V3.85938C0 4.86902 0.805888 5.6875 1.8 5.6875H3.8C4.79411 5.6875 5.6 4.86902 5.6 3.85938V1.82812C5.6 0.81848 4.79411 0 3.8 0H1.8ZM1.2 1.82812C1.2 1.49158 1.46863 1.21875 1.8 1.21875H3.8C4.13137 1.21875 4.4 1.49158 4.4 1.82812V3.85938C4.4 4.19592 4.13137 4.46875 3.8 4.46875H1.8C1.46863 4.46875 1.2 4.19592 1.2 3.85938V1.82812ZM7.4 0.8125C7.06864 0.8125 6.8 1.08533 6.8 1.42188C6.8 1.75842 7.06864 2.03125 7.4 2.03125H15.4C15.7314 2.03125 16 1.75842 16 1.42188C16 1.08533 15.7314 0.8125 15.4 0.8125H7.4ZM7.4 3.25C7.06864 3.25 6.8 3.52283 6.8 3.85938C6.8 4.19592 7.06864 4.46875 7.4 4.46875H13C13.3314 4.46875 13.6 4.19592 13.6 3.85938C13.6 3.52283 13.3314 3.25 13 3.25H7.4ZM1.8 7.3125C0.805888 7.3125 0 8.13101 0 9.14062V11.1719C0 12.1815 0.805888 13 1.8 13H3.8C4.79411 13 5.6 12.1815 5.6 11.1719V9.14062C5.6 8.13101 4.79411 7.3125 3.8 7.3125H1.8ZM1.2 9.14062C1.2 8.80409 1.46863 8.53125 1.8 8.53125H3.8C4.13137 8.53125 4.4 8.80409 4.4 9.14062V11.1719C4.4 11.5084 4.13137 11.7812 3.8 11.7812H1.8C1.46863 11.7812 1.2 11.5084 1.2 11.1719V9.14062ZM7.4 8.125C7.06864 8.125 6.8 8.39784 6.8 8.73438C6.8 9.07091 7.06864 9.34375 7.4 9.34375H15.4C15.7314 9.34375 16 9.07091 16 8.73438C16 8.39784 15.7314 8.125 15.4 8.125H7.4ZM7.4 10.5625C7.06864 10.5625 6.8 10.8353 6.8 11.1719C6.8 11.5084 7.06864 11.7812 7.4 11.7812H13C13.3314 11.7812 13.6 11.5084 13.6 11.1719C13.6 10.8353 13.3314 10.5625 13 10.5625H7.4Z" fill="#0E0E0E" fill-opacity="0.85"/>
</svg>
