<svg width="72" height="67" viewBox="0 0 72 67" fill="none" xmlns="http://www.w3.org/2000/svg">
<path d="M32.0754 1.0214C35.8157 -1.06334 40.4847 0.148026 42.779 3.70101L43.0768 4.19995L70.9867 54.9088C71.6514 56.1164 72 57.4745 72 58.8552C72 63.1658 68.6723 66.6945 64.4608 66.9812L63.9065 67H8.09495C6.72334 67 5.37425 66.6492 4.17429 65.9806C0.433886 63.8963 -1.02308 59.2704 0.752302 55.4282L1.01453 54.9095L28.9165 4.20078C29.6521 2.86373 30.747 1.76197 32.0754 1.0214ZM66.2666 57.5397L38.3571 6.83087C37.6351 5.51919 35.993 5.04484 34.6898 5.77135C34.3578 5.95648 34.0693 6.20936 33.8423 6.51224L33.6369 6.83116L5.73482 57.5401C5.01303 58.8516 5.48461 60.5037 6.78809 61.2302C7.08805 61.3975 7.416 61.505 7.75413 61.5484L8.09495 61.5701H63.9065C65.3964 61.5701 66.6044 60.3546 66.6044 58.8552C66.6044 58.5098 66.5392 58.1688 66.413 57.8503L66.2666 57.5397L38.3571 6.83087L66.2666 57.5397ZM36.0002 48.8754C37.984 48.8754 39.5923 50.4939 39.5923 52.4903C39.5923 54.487 37.984 56.1055 36.0002 56.1055C34.0161 56.1055 32.4078 54.487 32.4078 52.4903C32.4078 50.4939 34.0161 48.8754 36.0002 48.8754ZM35.9851 21.7179C37.3506 21.7168 38.4804 22.7373 38.6599 24.0623L38.6851 24.4307L38.6981 40.7259C38.6991 42.2256 37.4923 43.4419 36.0024 43.443C34.6366 43.4441 33.5067 42.4236 33.3272 41.0988L33.3024 40.7303L33.2895 24.435C33.288 22.9356 34.4949 21.7191 35.9851 21.7179Z" fill="#000"/>
</svg>
