<svg width="27" height="27" viewBox="0 0 27 27" fill="none" xmlns="http://www.w3.org/2000/svg">
<path d="M13.5 0C20.9558 0 27 6.04415 27 13.5C27 20.9558 20.9558 27 13.5 27C6.04415 27 0 20.9558 0 13.5C0 6.04415 6.04415 0 13.5 0ZM13.5 2.025C7.16253 2.025 2.025 7.16253 2.025 13.5C2.025 19.8374 7.16253 24.975 13.5 24.975C19.8374 24.975 24.975 19.8374 24.975 13.5C24.975 7.16253 19.8374 2.025 13.5 2.025ZM13.5 6.75C14.0592 6.75 14.5125 7.20332 14.5125 7.7625V12.4875H19.2375C19.7967 12.4875 20.25 12.9408 20.25 13.5C20.25 14.0592 19.7967 14.5125 19.2375 14.5125H14.5125V19.2375C14.5125 19.7967 14.0592 20.25 13.5 20.25C12.9408 20.25 12.4875 19.7967 12.4875 19.2375V14.5125H7.7625C7.20332 14.5125 6.75 14.0592 6.75 13.5C6.75 12.9408 7.20332 12.4875 7.7625 12.4875H12.4875V7.7625C12.4875 7.20332 12.9408 6.75 13.5 6.75Z" fill="#000"/>
</svg>
