<svg width="64" height="64" viewBox="0 0 64 64" fill="none" xmlns="http://www.w3.org/2000/svg">
<circle cx="32" cy="32" r="32" fill="#E6E6E6"/>
<path d="M43.3617 37.1947C45.9234 37.1947 48 39.3093 48 41.9182V43.8472C48 45.0516 47.6304 46.2257 46.9427 47.2055C43.7544 51.749 38.5479 54 31.4933 54C24.4373 54 19.2335 51.7482 16.0527 47.2021C15.368 46.2236 15 45.052 15 43.8504V41.9182C15 39.3093 17.0767 37.1947 19.6384 37.1947H43.3617ZM31.4933 12C37.1889 12 41.8061 16.7019 41.8061 22.5019C41.8061 28.3019 37.1889 33.0038 31.4933 33.0038C25.7976 33.0038 21.1804 28.3019 21.1804 22.5019C21.1804 16.7019 25.7976 12 31.4933 12Z" fill="#C9C9C9"/>
</svg>
