<?xml version="1.0" encoding="UTF-8"?><svg id="_레이어_1" xmlns="http://www.w3.org/2000/svg" viewBox="0 0 1155 396.54"><defs><style>.cls-1{fill:#17d3f0;}</style></defs><path class="cls-1" d="M433.14,167.29c-.89-53.74-35.25-72.86-80.51-66.86-21.61,2.87-38.86,14.89-53.89,30.7-12.52-29.94-17.99-32.27-49.03-22.63-8.63,2.68-12.67,6.87-10.37,16.66,2.76,11.77,4.04,23.81,4.08,35.99,.02,7.61-.1,96.68-.08,133.6,0,14.17,2.92,17.22,16.93,19.19,8.73,1.23,17.36,.76,26.04-.25,9.29-1.08,13.91-5.61,13.86-15.82-.19-37.96,.23-120.02,1.23-122.66,6.38-16.86,32.07-30.42,50.38-27.01,17.33,3.23,24.2,12.96,24.78,35.8h.06c0,36.92,0,73.84,.01,110.76,0,14.17,2.92,17.22,16.93,19.19,8.73,1.23,17.36,.76,26.04-.25,9.29-1.08,13.91-5.61,13.86-15.82-.19-37.96-.22-125.01-.32-130.57Z"/><path class="cls-1" d="M195.01,120.58c.03-15.18-7.57-18.19-17.5-18.91-1.58-.11-22.34-.2-23.9,0-10.39,1.34-15.91,5.5-15.91,18.09,0,21.21-.04,158.96,.02,174.39,.06,15.13,7.57,18.19,17.5,18.91,1.58,.11,22.34,.2,23.9,0,10.39-1.34,16.11-6.07,15.91-18.09-.36-21.2-.05-158.96-.02-174.39Z"/><path class="cls-1" d="M575.3,99.52c-49.8,1.44-83.36,25.99-94.84,68.91-5.03,18.81-5.44,37.86-3.76,56.84,4.39,49.55,32.87,78.61,84.7,87.29,11.69,1.96,23.62,2.47,35.5,1.88,22.28-1.1,43.93-4.72,63.76-14.46,11.54-5.67,13.65-12.72,7.25-22.9-1.92-3.05-3.66-6.23-5.75-9.22-5.2-7.43-11.53-9.03-21-5.26-4.41,1.75-19.5,7.19-31.42,8.52-39.82,4.42-67.7-6.2-73.61-38.44-1.09-5.97-.48-8.57,7.85-8.57,18.58,0,87.97,.56,104.55,.46,15.54-.09,24.04-6.1,28.66-16.55,1.64-3.7,1.5-13.92,1.07-20.87-3.64-58.29-40.36-89.44-102.95-87.63Zm47.03,85.94c-.81,2.95-4.97,2.67-7.69,2.71-11.86,.18-59.31-.26-71.14,.2-7.47,.29-8.1-1.92-6.73-7.88,6.71-29.25,25.29-43.25,53.31-39.49,19.35,2.6,36.81,27.85,32.25,44.45Z"/><path class="cls-1" d="M913.24,290.49c-2.27-10.43-4.02-20.96-4.05-31.71-.05-25.49-.12-50.97-.19-76.46h-.16c.03-21.11,.06-42.23,.05-63.34,0-13.89-2.92-16.88-16.93-18.81-8.73-1.2-17.36-.75-26.04,.24-9.29,1.06-13.91,5.5-13.86,15.51,.11,22.13-.22,66.4-.22,66.4h-.05c-.04,13.34-.08,26.67-.08,40.01,0,21.01-15.59,39.09-36.49,42.3-25.63,3.94-39.58-7.8-39.63-33.6-.03-14.8-.03-29.6-.03-44.4,0,0,.08-45.1,.07-67.65,0-13.89-2.92-16.88-16.93-18.81-8.73-1.2-17.36-.75-26.04,.24-9.29,1.06-13.91,5.5-13.86,15.51,.12,23.57,.04,70.71,.04,70.71-.02,18.83-.04,37.66,.02,56.49,.15,50.46,30.71,76.24,81,68.81,21.66-3.2,38.65-14.88,54.82-30.41,2.44,7.82,4.16,13.84,6.21,19.75,1.85,5.35,5.48,8.34,11.53,8.4,11.19,.11,22.02-1.54,32.73-4.79,7.65-2.31,9.71-6.9,8.09-14.38Z"/><path class="cls-1" d="M1139.2,141.57c-16.19-33.77-53.07-48.97-90.77-39.99-17.34,4.13-30.74,13.84-42.73,26.05-8.24-25.98-9.28-26.56-38.24-22.09-1.95,.3-3.91,.56-5.83,.98-14.53,3.2-15.99,5.43-13.73,18.45,1.59,9.13,3.55,18.35,3.61,27.53,.33,55.94,.4,206.92,.41,224.5,0,13.89,2.92,16.88,16.93,18.81,8.73,1.2,17.36,.75,26.04-.24,9.29-1.06,13.91-5.5,13.86-15.51,0-1.73,.01-51.22,.01-78.03,4.21,2.11,6.87,3.5,9.59,4.8,46.6,22.29,101.99,6.08,122.44-37.54,19.84-42.33,18.55-85.75-1.58-127.73Zm-50.94,109.1c-12.12,25.23-53.59,33.18-76.64,14.98-3.36-2.65-2.82-5.62-2.84-8.71-.07-13.88-.03-27.77-.03-41.65,0-12.46,0-24.92,0-37.38,0-15.45,14.65-29.89,35.27-34.79,17.22-4.09,32.81,2.26,41.72,17.01,7.58,12.55,9.24,26.35,9.87,40.24,.78,17.1,.38,34.2-7.35,50.3Z"/><path class="cls-1" d="M104.77,268.41c-1.16-2.7-5.21-6.45-12.8-5.22-25.36,4.1-34.97,.56-34.97-25.44,0-18.48-.17-213.21-.17-218.21,0-13.89-2.92-16.88-16.93-18.81C31.17-.48,22.54-.03,13.86,.97,4.57,2.03-.05,6.46,0,16.48c.03,5.9,.17,213.51,.36,235.03,.44,47.94,56.44,75.91,100.17,55.43,6.12-2.87,10.71-6.88,10.1-14.43-.8-9.86-3.22-17.93-5.87-24.11Z"/><path class="cls-1" d="M194.68,24.41c-.09-3.75-2.05-7.21-5.35-8.7-7.68-3.48-15.44-4.92-23.23-4.76-7.79-.16-15.56,1.28-23.23,4.76-3.3,1.5-5.26,4.95-5.35,8.7-.1,4.25-.1,27.58,0,31.83,.09,3.75,2.05,7.21,5.35,8.7,7.68,3.48,15.44,4.92,23.23,4.76,7.79,.16,15.56-1.28,23.23-4.76,3.3-1.5,5.26-4.95,5.35-8.7,.1-4.25,.1-27.58,0-31.83Z"/></svg>