<svg width="20" height="23" viewBox="0 0 20 23" fill="none" xmlns="http://www.w3.org/2000/svg">
<path d="M17.8467 13.6748V13.774L17.8845 13.8656L19.4213 17.5871L19.4213 17.5872C19.473 17.7122 19.5 17.8483 19.5 17.9868C19.5 18.552 19.0741 18.9607 18.608 18.9607H18.6079L13.3354 18.9625L12.8356 18.9627V19.4625C12.8356 21.1674 11.5372 22.5 9.99485 22.5C8.50904 22.5 7.25079 21.2646 7.15939 19.6491L7.15341 19.4451L7.13918 18.9597L6.65354 18.9598L1.39233 18.9607C1.39231 18.9607 1.39228 18.9607 1.39226 18.9607C1.27454 18.9607 1.15702 18.9351 1.04673 18.8845C0.600584 18.6792 0.367012 18.1041 0.578187 17.5893L2.10563 13.8656L2.14303 13.7744V13.6759V8.8437C2.14303 8.84367 2.14303 8.84365 2.14303 8.84363C2.1437 4.19347 5.67834 0.5 9.99485 0.5C14.2081 0.5 17.6932 4.02469 17.8421 8.56003L17.8467 8.84766V13.6748ZM12.1643 19.4807L12.1861 18.9594L11.6644 18.9598L8.32407 18.9625L7.82448 18.9629V19.4625C7.82448 20.6881 8.76964 21.7313 9.99485 21.7313C11.1473 21.7313 12.0538 20.8062 12.1555 19.6777L12.1566 19.6657L12.1571 19.6537L12.1643 19.4807ZM2.8134 8.84368V8.84375V13.9448L1.35418 17.5022L1.07124 18.192H1.81677H18.1824H18.9298L18.6446 17.5012L17.1763 13.9454L17.1764 8.85892H17.1765L17.1764 8.85115L17.1722 8.5856L17.1723 8.5856L17.172 8.57715C17.0404 4.52029 13.8994 1.26875 9.99485 1.26875C5.99512 1.26875 2.81397 4.67309 2.8134 8.84368Z" fill="#0E0E0E" fill-opacity="0.6" stroke="black"/>
</svg>
