<svg width="16" height="4" viewBox="0 0 16 4" fill="none" xmlns="http://www.w3.org/2000/svg">
<path d="M4 1.75C4 2.7165 3.2165 3.5 2.25 3.5C1.2835 3.5 0.5 2.7165 0.5 1.75C0.5 0.7835 1.2835 0 2.25 0C3.2165 0 4 0.7835 4 1.75ZM10 1.75C10 2.7165 9.2165 3.5 8.25 3.5C7.2835 3.5 6.5 2.7165 6.5 1.75C6.5 0.7835 7.2835 0 8.25 0C9.2165 0 10 0.7835 10 1.75ZM14.25 3.5C15.2165 3.5 16 2.7165 16 1.75C16 0.7835 15.2165 0 14.25 0C13.2835 0 12.5 0.7835 12.5 1.75C12.5 2.7165 13.2835 3.5 14.25 3.5Z" fill="#000"/>
</svg>
