<svg width="22" height="22" viewBox="0 0 22 22" fill="none" xmlns="http://www.w3.org/2000/svg">
<path d="M9.30775 0.598032C10.2853 -0.199346 11.7147 -0.199346 12.6922 0.598043L20.5672 7.0216C21.1586 7.50406 21.5 8.21431 21.5 8.96269V20.0251C21.5 21.1158 20.5859 22 19.4583 22H15.375C14.2474 22 13.3333 21.1158 13.3333 20.0251V13.8184C13.3333 13.6626 13.2028 13.5362 13.0417 13.5362H8.95833C8.79722 13.5362 8.66666 13.6626 8.66666 13.8184V20.0251C8.66666 21.1158 7.75258 22 6.625 22H2.54167C1.41408 22 0.5 21.1158 0.5 20.0251V8.96269C0.5 8.21431 0.841308 7.50406 1.43277 7.0216L9.30775 0.598032ZM11.5641 1.8921C11.2382 1.6263 10.7618 1.6263 10.4359 1.8921L2.56093 8.31567C2.36377 8.47648 2.25 8.71324 2.25 8.96269V20.0251C2.25 20.181 2.38058 20.3072 2.54167 20.3072H6.625C6.78608 20.3072 6.91666 20.181 6.91666 20.0251V13.8184C6.91666 12.7277 7.83075 11.8435 8.95833 11.8435H13.0417C14.1692 11.8435 15.0833 12.7277 15.0833 13.8184V20.0251C15.0833 20.181 15.2139 20.3072 15.375 20.3072H19.4583C19.6194 20.3072 19.75 20.181 19.75 20.0251V8.96269C19.75 8.71324 19.6362 8.47648 19.4391 8.31567L11.5641 1.8921Z"  fill="#000"/>
</svg>
