<svg width="26" height="26" viewBox="0 0 26 26" fill="none" xmlns="http://www.w3.org/2000/svg">
<circle cx="13" cy="13" r="12.5" fill="white" stroke="#17D3F0"/>
<path d="M14.9435 6C15.5419 6 16.0955 6.29692 16.3985 6.78039L17.0095 7.7549H18.5625C19.9087 7.7549 21 8.77755 21 10.0391V16.7158C21 17.9773 19.9087 19 18.5625 19H8.4375C7.0913 19 6 17.9773 6 16.7158V10.0391C6 8.77755 7.0913 7.7549 8.4375 7.7549H9.99782L10.6537 6.75388C10.9607 6.28545 11.5052 6 12.0918 6H14.9435ZM14.9435 7.05423H12.0918C11.9242 7.05423 11.7669 7.12413 11.6609 7.24243L11.6124 7.30552L10.7918 8.55783C10.6895 8.71397 10.508 8.80912 10.3125 8.80912H8.4375C7.71263 8.80912 7.125 9.35978 7.125 10.0391V16.7158C7.125 17.3951 7.71263 17.9458 8.4375 17.9458H18.5625C19.2874 17.9458 19.875 17.3951 19.875 16.7158V10.0391C19.875 9.35978 19.2874 8.80912 18.5625 8.80912H16.6875C16.4881 8.80912 16.3035 8.71015 16.2025 8.54899L15.4285 7.31435C15.3275 7.1532 15.143 7.05423 14.9435 7.05423ZM13.5 9.86335C15.364 9.86335 16.875 11.2793 16.875 13.0261C16.875 14.7727 15.364 16.1887 13.5 16.1887C11.636 16.1887 10.125 14.7727 10.125 13.0261C10.125 11.2793 11.636 9.86335 13.5 9.86335ZM13.5 10.9176C12.2573 10.9176 11.25 11.8616 11.25 13.0261C11.25 14.1905 12.2573 15.1345 13.5 15.1345C14.7427 15.1345 15.75 14.1905 15.75 13.0261C15.75 11.8616 14.7427 10.9176 13.5 10.9176Z" fill="#000"/>
</svg>
