<svg width="11" height="11" viewBox="0 0 11 11" fill="none" xmlns="http://www.w3.org/2000/svg">
<path d="M1.7875 8.68431C0.800288 8.68431 0 7.84187 0 6.80271V1.8816C0 0.842418 0.800288 0 1.7875 0H9.2125C10.1997 0 11 0.842418 11 1.8816V6.80271C11 7.84187 10.1997 8.68431 9.2125 8.68431H6.05688L3.29927 10.8558C2.99522 11.0952 2.56438 11.0298 2.33696 10.7097C2.24805 10.5845 2.2 10.4325 2.2 10.2764L2.19957 8.68431H1.7875ZM5.78243 7.81588H9.2125C9.74408 7.81588 10.175 7.36227 10.175 6.80271V1.8816C10.175 1.32204 9.74408 0.868431 9.2125 0.868431H1.7875C1.25592 0.868431 0.825 1.32204 0.825 1.8816V6.80271C0.825 7.36227 1.25592 7.81588 1.7875 7.81588H3.02433L3.02445 8.24998L3.02492 9.9873L5.78243 7.81588Z" fill="#616161"/>
</svg>
