<svg width="59" height="65" viewBox="0 0 59 65" fill="none" xmlns="http://www.w3.org/2000/svg">
<path d="M30.2763 0C33.875 0 36.838 2.71171 37.2212 6.19695C37.2209 6.19419 37.2206 6.19147 37.2203 6.18874L42.6974 6.19048C46.556 6.19048 49.6842 9.3085 49.6842 13.1548V29.3992C48.2117 28.787 46.651 28.3437 45.0263 28.0936V13.1548C45.0263 11.8727 43.9836 10.8333 42.6974 10.8333L36.0863 10.834C34.8327 12.7001 32.6984 13.9286 30.2763 13.9286H19.4079C16.9857 13.9286 14.8514 12.7 13.5979 10.8338L6.98684 10.8333C5.70061 10.8333 4.6579 11.8727 4.6579 13.1548V54.9405C4.6579 56.2225 5.70061 57.2619 6.98684 57.2619H24.0105C24.9023 58.9674 26.032 60.5295 27.3561 61.9048H6.98684C3.12812 61.9048 0 58.7866 0 54.9405V13.1548C0 9.3085 3.12812 6.19048 6.98684 6.19048L12.4639 6.18874C12.8509 2.70747 15.8122 0 19.4079 0H30.2763ZM37.247 6.48746L37.2632 6.96429C37.2632 6.80401 37.2579 6.64501 37.247 6.48746ZM30.2763 4.64286H19.4079C18.1217 4.64286 17.0789 5.68221 17.0789 6.96429C17.0789 8.24636 18.1217 9.28572 19.4079 9.28572H30.2763C31.5625 9.28572 32.6053 8.24636 32.6053 6.96429C32.6053 5.68221 31.5625 4.64286 30.2763 4.64286ZM59 47.9762C59 57.3783 51.3536 65 41.9211 65C32.4885 65 24.8421 57.3783 24.8421 47.9762C24.8421 38.5741 32.4885 30.9524 41.9211 30.9524C51.3536 30.9524 59 38.5741 59 47.9762ZM41.9211 37.1429C41.0637 37.1429 40.3684 37.8359 40.3684 38.6905V51.0714C40.3684 51.926 41.0637 52.619 41.9211 52.619C42.7784 52.619 43.4737 51.926 43.4737 51.0714V38.6905C43.4737 37.8359 42.7784 37.1429 41.9211 37.1429ZM41.9211 59.1964C42.993 59.1964 43.8618 58.3304 43.8618 57.2619C43.8618 56.1934 42.993 55.3274 41.9211 55.3274C40.8491 55.3274 39.9803 56.1934 39.9803 57.2619C39.9803 58.3304 40.8491 59.1964 41.9211 59.1964Z" fill="#000" fill-opacity="0.4"/>
</svg>
