<svg width="10" height="9" viewBox="0 0 10 9" fill="none" xmlns="http://www.w3.org/2000/svg">
<path d="M5.40882 0.820832L4.99854 1.24891L4.58697 0.820447C3.53766 -0.272008 1.83634 -0.272008 0.787005 0.820447C-0.262335 1.9129 -0.262335 3.68411 0.787005 4.77658L4.73394 8.88567C4.88037 9.03811 5.11777 9.03811 5.2642 8.88567L9.21416 4.7758C10.2612 3.67974 10.263 1.91349 9.21346 0.820832C8.1622 -0.273611 6.46007 -0.273611 5.40882 0.820832ZM8.68246 4.22533L4.99904 8.05769L1.31724 4.22455C0.560732 3.43695 0.560732 2.16005 1.31724 1.37246C2.07373 0.584877 3.30026 0.584877 4.05677 1.37246L4.73534 2.07894C4.88427 2.23397 5.12657 2.23094 5.27184 2.07225L5.93907 1.37285C6.69748 0.583279 7.9248 0.583279 8.68321 1.37285C9.43992 2.16062 9.43862 3.43378 8.68246 4.22533Z" fill="#000"/>
</svg>
