<svg width="15" height="12" viewBox="0 0 15 12" fill="none" xmlns="http://www.w3.org/2000/svg">
<path d="M12.5252 5.56113L7.10858 0.181796C6.8645 -0.060596 6.46883 -0.060596 6.22475 0.181796C6.00283 0.402157 5.98267 0.746979 6.16425 0.989967L6.22475 1.05958L10.575 5.37931H0.625C0.308583 5.37931 0.0470917 5.61286 0.00570834 5.91575L0 6C0 6.31423 0.235125 6.57393 0.540192 6.61506L0.625 6.62069H10.575L6.22475 10.9404C6.00283 11.1607 5.98267 11.5056 6.16425 11.7486L6.22475 11.8182C6.44658 12.0386 6.79383 12.0586 7.0385 11.8783L7.10858 11.8182L12.5252 6.43887C12.7472 6.21857 12.7673 5.87371 12.5857 5.63073L12.5252 5.56113L7.10858 0.181796L12.5252 5.56113ZM15 11.3793V0.62069C15 0.277895 14.7202 0 14.375 0C14.0298 0 13.75 0.277895 13.75 0.62069V11.3793C13.75 11.7221 14.0298 12 14.375 12C14.7202 12 15 11.7221 15 11.3793Z" fill="#0E0E0E" fill-opacity="0.85"/>
</svg>
