<svg width="14" height="20" viewBox="0 0 14 20" fill="none" xmlns="http://www.w3.org/2000/svg">
<path d="M12.0009 19.2451L12.0016 13.2441C10.6318 14.3428 8.8926 15 7 15C5.1084 15 3.37019 14.3435 2.00069 13.2459L2.00252 19.2451C2.00252 19.8529 2.68747 20.2082 3.18436 19.8583L7.0008 17.1706L10.8192 19.8584C11.3161 20.2082 12.0009 19.8528 12.0009 19.2451ZM14 7C14 3.13401 10.866 0 7 0C3.13401 0 0 3.13401 0 7C0 10.866 3.13401 14 7 14C10.866 14 14 10.866 14 7ZM7.2288 3.64234L8.1414 5.495L10.1853 5.79036C10.3946 5.8206 10.4783 6.07783 10.3268 6.22543L8.8485 7.66589L9.1975 9.7013C9.2332 9.9097 9.0144 10.0686 8.8273 9.97L7.0001 9.0076L5.1728 9.97C4.98566 10.0686 4.76674 9.9096 4.80266 9.7011L5.1534 7.66589L3.67339 6.22553C3.52177 6.07798 3.60539 5.82061 3.81478 5.79036L5.8587 5.495L6.7713 3.64234C6.8648 3.45255 7.1354 3.45255 7.2288 3.64234Z"  fill="#000"/>
</svg>
