<svg width="16" height="18" viewBox="0 0 16 18" fill="none" xmlns="http://www.w3.org/2000/svg">
<path d="M11.6609 0.856595C11.7684 0.515734 11.5942 0.147263 11.2718 0.0335906C10.9493 -0.0800816 10.6009 0.104098 10.4933 0.444958L9.87791 2.39586C9.77042 2.73672 9.94462 3.10519 10.267 3.21887C10.5895 3.33254 10.9379 3.14836 11.0455 2.8075L11.6609 0.856595ZM15.4095 0.841336C15.6498 1.09542 15.6498 1.50735 15.4095 1.76142L13.3582 3.93007C13.1179 4.18415 12.7283 4.18415 12.488 3.93007C12.2476 3.676 12.2476 3.26407 12.488 3.00999L14.5392 0.841336C14.7796 0.587265 15.1691 0.587265 15.4095 0.841336ZM4.98568 2.6617C5.56809 1.38376 7.18334 1.12394 8.09895 2.16093L13.8477 8.6721C14.7429 9.68599 14.4254 11.3305 13.2258 11.8924L10.4198 13.2068C10.579 13.6145 10.6669 14.0616 10.6669 14.5302C10.6669 16.4466 9.19754 18 7.38486 18C6.07573 18 4.94564 17.1897 4.41883 16.0176L3.25579 16.5624C2.71205 16.817 2.07687 16.7021 1.64419 16.2707L0.46369 15.0937C-0.00461769 14.6268 -0.132962 13.893 0.146447 13.28L4.98568 2.6617ZM5.54499 15.4901C5.87996 16.2063 6.57797 16.6988 7.38486 16.6988C8.51783 16.6988 9.43614 15.7279 9.43614 14.5302C9.43614 14.2492 9.3856 13.9806 9.29362 13.7342L5.54499 15.4901ZM7.19918 3.0488C6.87434 2.68082 6.30113 2.77302 6.09444 3.2265L1.25522 13.8448C1.20865 13.947 1.23005 14.0693 1.3081 14.1471L2.48861 15.3241C2.56072 15.396 2.6666 15.4151 2.75724 15.3726L12.7273 10.7027C13.153 10.5033 13.2656 9.91977 12.9479 9.55995L7.19918 3.0488ZM13.1282 6.07178C13.1282 5.71247 13.4037 5.42119 13.7436 5.42119H15.3846C15.7245 5.42119 16 5.71247 16 6.07178C16 6.43109 15.7245 6.72238 15.3846 6.72238H13.7436C13.4037 6.72238 13.1282 6.43109 13.1282 6.07178Z" fill="#0E0E0E" fill-opacity="0.85"/>
</svg>
