<svg width="16" height="17" viewBox="0 0 16 17" fill="none" xmlns="http://www.w3.org/2000/svg">
<path d="M8 0C12.4182 0 16 3.80526 16 8.49928C16 13.1933 12.4182 16.9986 8 16.9986C6.70536 16.9986 5.45426 16.671 4.33029 16.0534L1.26963 16.9606C0.737696 17.1184 0.186064 16.7882 0.037528 16.2231C-0.011632 16.0361 -0.0116079 15.8383 0.0375601 15.6515L0.891688 12.4023C0.309096 11.2072 0 9.87642 0 8.49928C0 3.80526 3.58172 0 8 0ZM8 1.27489C4.24446 1.27489 1.2 4.50936 1.2 8.49928C1.2 9.74834 1.49822 10.95 2.05842 12.0159L2.17894 12.2451L1.28877 15.6314L4.47804 14.6861L4.69367 14.8138C5.69605 15.4076 6.82576 15.7237 8 15.7237C11.7555 15.7237 14.8 12.4892 14.8 8.49928C14.8 4.50936 11.7555 1.27489 8 1.27489ZM8 11.474C8.44184 11.474 8.8 11.8545 8.8 12.324C8.8 12.7934 8.44184 13.1739 8 13.1739C7.55816 13.1739 7.2 12.7934 7.2 12.324C7.2 11.8545 7.55816 11.474 8 11.474ZM8 4.03716C9.21504 4.03716 10.2 5.08361 10.2 6.37446C10.2 7.23357 9.962 7.71225 9.35912 8.3791L9.22424 8.52504C8.72672 9.05361 8.6 9.27807 8.6 9.77417C8.6 10.1262 8.33136 10.4116 8 10.4116C7.66864 10.4116 7.4 10.1262 7.4 9.77417C7.4 8.91507 7.638 8.43639 8.24088 7.76953L8.37576 7.6236C8.87328 7.09503 9 6.87056 9 6.37446C9 5.78771 8.55232 5.31205 8 5.31205C7.48224 5.31205 7.0564 5.73011 7.0052 6.26583L7 6.37446C7 6.72651 6.73136 7.01191 6.4 7.01191C6.06863 7.01191 5.8 6.72651 5.8 6.37446C5.8 5.08361 6.78496 4.03716 8 4.03716Z" fill="#0E0E0E" fill-opacity="0.85"/>
</svg>
