<svg width="22" height="22" viewBox="0 0 22 22" fill="none" xmlns="http://www.w3.org/2000/svg">
<path d="M17.7222 8.86112C17.7222 3.96726 13.755 0 8.86112 0C3.96725 0 0 3.96726 0 8.86112C0 13.755 3.96725 17.7222 8.86112 17.7222C10.9779 17.7222 12.9212 16.98 14.4452 15.7416L20.4352 21.7315L20.538 21.8202C20.8969 22.0865 21.4062 22.057 21.7315 21.7315C22.0895 21.3735 22.0895 20.7932 21.7315 20.4352L15.7416 14.4452C16.98 12.9212 17.7222 10.9779 17.7222 8.86112ZM1.83334 8.86112C1.83334 4.97978 4.97978 1.83333 8.86112 1.83333C12.7424 1.83333 15.8889 4.97978 15.8889 8.86112C15.8889 12.7424 12.7424 15.8889 8.86112 15.8889C4.97978 15.8889 1.83334 12.7424 1.83334 8.86112Z" fill="#000"/>
</svg>
