<svg width="21" height="22" viewBox="0 0 21 22" fill="none" xmlns="http://www.w3.org/2000/svg">
<path d="M14.4994 0C15.2951 0 16.0064 0.348357 16.4777 0.89537C17.0162 1.52029 17.6764 2.20028 18.5013 2.2C19.55 2.2 20.41 2.97782 20.4934 3.96712L20.5 4.125V7.425C20.5 9.3313 18.9508 10.8891 16.9989 10.9944C16.8547 10.9982 16.7293 11.0923 16.6786 11.2273C15.9459 13.1763 14.2473 14.6798 12.1397 15.2013C11.6971 15.3109 11.3551 15.689 11.355 16.145C11.3547 16.6448 11.7598 17.05 12.2596 17.05H13.3573C15.3365 17.05 16.954 18.5422 17.0632 20.4222L17.0691 20.625V21.175C17.0691 21.5927 16.7468 21.9379 16.3288 21.9925L16.2125 22H4.788C4.35434 22 3.99596 21.6896 3.93925 21.287L3.93142 21.175V20.625C3.93142 18.7187 5.48064 17.1609 7.43264 17.0556L7.64327 17.05H8.73649C9.2363 17.05 9.64151 16.6449 9.64161 16.1451C9.6417 15.6888 9.29977 15.3102 8.85689 15.2004C6.68032 14.6604 4.94048 13.073 4.25136 11.0293C4.24561 11.0122 4.22984 11.0005 4.21184 11C2.16186 11 0.5 9.39939 0.5 7.425V4.125C0.5 3.06185 1.39485 2.2 2.49869 2.2C3.32389 2.20028 3.98431 1.52 4.52312 0.894982C4.99448 0.348192 5.7056 0 6.50116 0H14.4994ZM13.3573 18.7H7.64327C6.69559 18.7 5.90197 19.3353 5.69638 20.1878C5.68002 20.2719 5.74443 20.35 5.83011 20.35H12.7056C14.091 20.35 14.9137 18.8232 13.533 18.7074L13.3573 18.7ZM14.4994 1.65H6.50116C6.02809 1.65 5.64458 2.01937 5.64458 2.475V9.07335C5.64458 11.6561 7.81855 13.75 10.5003 13.75C13.182 13.75 15.356 11.6561 15.356 9.07335V2.475C15.356 2.01937 14.9724 1.65 14.4994 1.65ZM18.5013 3.85C17.7103 3.85 17.0691 4.49122 17.0691 5.2822V6.70059C17.0691 8.09245 18.6536 8.98075 18.7792 7.59457L18.7868 7.425V4.125C18.7868 3.99482 18.693 3.88576 18.5669 3.85726L18.5013 3.85ZM3.93142 5.28274C3.93142 4.49146 3.28996 3.85 2.49869 3.85C2.34099 3.85 2.21316 3.97312 2.21316 4.125V7.425C2.21316 8.90709 3.93142 8.01244 3.93142 6.53034V5.28274Z" fill="#000"/>
</svg>
