<svg width="19" height="21" viewBox="0 0 19 21" fill="none" xmlns="http://www.w3.org/2000/svg">
<path d="M12.302 10.2847C12.7352 9.66294 12.9881 8.9145 12.9881 8.10986C12.9881 5.95051 11.1693 4.2 8.92585 4.2C6.68234 4.2 4.86364 5.95051 4.86364 8.10986C4.86364 10.2692 6.68234 12.0198 8.92585 12.0198C9.76182 12.0198 10.5394 11.7764 11.1855 11.3594L13.8867 13.9592L13.9597 14.02L13.9678 14.0258C14.2771 14.2466 14.7156 14.2224 14.996 13.9524C15.3044 13.6557 15.3044 13.1746 14.996 12.8778L12.302 10.2847ZM8.92585 5.71974C10.2973 5.71974 11.4091 6.78983 11.4091 8.10986C11.4091 9.42994 10.2973 10.5 8.92585 10.5C7.55436 10.5 6.44258 9.42994 6.44258 8.10986C6.44258 6.78983 7.55436 5.71974 8.92585 5.71974ZM3.22727 0C1.72104 0 0.5 1.17525 0.5 2.625V18.375C0.5 19.8247 1.72104 21 3.22727 21H17.6818C18.1337 21 18.5 20.6474 18.5 20.2125C18.5 19.7776 18.1337 19.425 17.6818 19.425H3.22727C2.62479 19.425 2.13636 18.9549 2.13636 18.375H17.6818C18.1337 18.375 18.5 18.0224 18.5 17.5875V2.625C18.5 1.17525 17.2789 0 15.7727 0H3.22727ZM16.8636 16.8H2.13636V2.625C2.13636 2.04511 2.62479 1.575 3.22727 1.575H15.7727C16.3752 1.575 16.8636 2.04511 16.8636 2.625V16.8Z" fill="#000"/>
</svg>
