<svg width="10" height="11" viewBox="0 0 10 11" fill="none" xmlns="http://www.w3.org/2000/svg">
<path fill-rule="evenodd" clip-rule="evenodd" d="M9.86051 0.812908C10.0465 0.626946 10.0465 0.325434 9.86051 0.139472C9.67454 -0.0464906 9.37308 -0.0464906 9.18711 0.139472L4.99999 4.32659L0.812876 0.139493C0.626907 -0.0464756 0.325446 -0.0464756 0.139477 0.139493C-0.0464913 0.325462 -0.0464914 0.626923 0.139477 0.812891L4.40592 5.07938L0.139476 9.34584C-0.0464921 9.5318 -0.0464922 9.83331 0.139476 10.0193C0.325445 10.2052 0.626906 10.2052 0.812875 10.0193L4.99999 5.83216L9.18711 10.0193C9.37308 10.2052 9.67454 10.2052 9.86051 10.0193C10.0465 9.83329 10.0465 9.53183 9.86051 9.34586L5.59406 5.07937L9.86051 0.812908Z" fill="#0E0E0E" fill-opacity="0.85"/>
</svg>
