<svg width="13" height="13" viewBox="0 0 13 13" fill="none" xmlns="http://www.w3.org/2000/svg">
<path d="M6.49957 2.88867C6.79871 2.88867 7.04123 3.10918 7.04123 3.38119V7.48555C7.04123 7.75756 6.79871 7.97807 6.49957 7.97807C6.20042 7.97807 5.9579 7.75756 5.9579 7.48555V3.38119C5.9579 3.10918 6.20042 2.88867 6.49957 2.88867ZM6.49957 10.1109C6.89845 10.1109 7.22179 9.81689 7.22179 9.4542C7.22179 9.09151 6.89845 8.7975 6.49957 8.7975C6.10068 8.7975 5.77734 9.09151 5.77734 9.4542C5.77734 9.81689 6.10068 10.1109 6.49957 10.1109Z" fill="#32281F"/>
<path fill-rule="evenodd" clip-rule="evenodd" d="M13 6.5C13 2.91018 10.0898 7.90669e-07 6.50002 0V0.975C9.55138 0.975001 12.025 3.44864 12.025 6.5C12.025 9.55136 9.55138 12.025 6.50002 12.025V13C10.0898 13 13 10.0898 13 6.5ZM6.5 1.43051e-06C2.91018 1.11668e-06 3.13832e-07 2.91018 0 6.5H0.975C0.975001 3.44864 3.44864 0.975001 6.5 0.975001V1.43051e-06ZM5.72205e-06 6.5C5.72205e-06 10.0898 2.91019 13 6.50001 13V12.025C3.44865 12.025 0.975006 9.55136 0.975006 6.5H5.72205e-06Z" fill="#32281F"/>
</svg>
