<svg width="16" height="15" viewBox="0 0 16 15" fill="none" xmlns="http://www.w3.org/2000/svg">
<path d="M6.03018 0C2.72692 0 0.0491082 2.79759 0.0491082 6.2486C0.0491082 7.19247 0.249809 8.08885 0.609455 8.89251C0.406872 9.72399 0.180532 10.6511 0.0318907 11.2597C-0.153937 12.0206 0.501931 12.7128 1.2311 12.5297C1.82938 12.3795 2.74889 12.1489 3.56828 11.9448C4.31975 12.2998 5.15362 12.4972 6.03018 12.4972C9.33342 12.4972 12.0113 9.69958 12.0113 6.2486C12.0113 2.79759 9.33342 0 6.03018 0ZM1.24532 6.2486C1.24532 3.48779 3.38757 1.24972 6.03018 1.24972C8.67279 1.24972 10.8151 3.48779 10.8151 6.2486C10.8151 9.0094 8.67279 11.2475 6.03018 11.2475C5.26401 11.2475 4.54152 11.0599 3.90094 10.7267L3.70683 10.6257L3.49588 10.6782C2.76002 10.8611 1.90987 11.0741 1.27271 11.234C1.43121 10.5849 1.64108 9.72482 1.82304 8.97774L1.879 8.74787L1.77493 8.53709C1.43661 7.85207 1.24532 7.07458 1.24532 6.2486ZM10.0176 14.9967C8.44703 14.9967 7.01787 14.3643 5.95069 13.3299C5.97717 13.3303 6.00368 13.3304 6.03022 13.3304C6.60278 13.3304 7.15878 13.2562 7.68982 13.1166C8.37884 13.5181 9.17265 13.747 10.0176 13.747C10.7837 13.747 11.5062 13.5593 12.1468 13.2261L12.3409 13.1251L12.5519 13.1776C13.2868 13.3604 14.119 13.549 14.7363 13.6854C14.5968 13.0602 14.4064 12.2232 14.2247 11.4772L14.1688 11.2474L14.2728 11.0366C14.6111 10.3516 14.8024 9.57411 14.8024 8.74812C14.8024 6.98619 13.93 5.43726 12.6118 4.54699C12.4696 3.94441 12.2535 3.37221 11.9741 2.84146C14.3165 3.68821 15.9986 6.0129 15.9986 8.74812C15.9986 9.69216 15.7978 10.5888 15.438 11.3925C15.6399 12.2323 15.8442 13.1421 15.9738 13.728C16.1368 14.4653 15.5152 15.1327 14.8035 14.9773C14.2236 14.8507 13.3125 14.6476 12.4801 14.444C11.7285 14.7992 10.8944 14.9967 10.0176 14.9967Z" fill="#0E0E0E" fill-opacity="0.5"/>
</svg>
