<svg width="16" height="16" viewBox="0 0 16 16" fill="none" xmlns="http://www.w3.org/2000/svg">
<path d="M7.99997 0C12.4182 0 16 3.58173 16 8.00002C16 12.4183 12.4182 16 7.99997 16C3.58172 16 0 12.4183 0 8.00002C0 3.58173 3.58172 0 7.99997 0ZM7.99997 1.19982C4.24436 1.19982 1.19981 4.24437 1.19981 8.00002C1.19981 11.7557 4.24436 14.8002 7.99997 14.8002C11.7556 14.8002 14.8002 11.7557 14.8002 8.00002C14.8002 4.24437 11.7556 1.19982 7.99997 1.19982ZM5.16982 10.2263C5.84903 11.0883 6.88167 11.6008 7.99997 11.6008C9.11676 11.6008 10.1482 11.0898 10.8275 10.2297C11.0329 9.96964 11.4101 9.92533 11.6701 10.1307C11.9301 10.3361 11.9744 10.7133 11.7691 10.9733C10.8646 12.1185 9.4879 12.8006 7.99997 12.8006C6.51013 12.8006 5.13173 12.1167 4.22739 10.9688C4.02235 10.7086 4.06709 10.3314 4.32734 10.1264C4.58759 9.92133 4.96478 9.96612 5.16982 10.2263ZM5.60072 5.40093C6.15261 5.40093 6.60003 5.84832 6.60003 6.40021C6.60003 6.9521 6.15261 7.39947 5.60072 7.39947C5.04884 7.39947 4.60145 6.9521 4.60145 6.40021C4.60145 5.84832 5.04884 5.40093 5.60072 5.40093ZM10.4 5.40093C10.9518 5.40093 11.3993 5.84832 11.3993 6.40021C11.3993 6.9521 10.9518 7.39947 10.4 7.39947C9.84808 7.39947 9.40071 6.9521 9.40071 6.40021C9.40071 5.84832 9.84808 5.40093 10.4 5.40093Z" fill="#0E0E0E" fill-opacity="0.85"/>
</svg>
