<svg width="11" height="9" viewBox="0 0 11 9" fill="none" xmlns="http://www.w3.org/2000/svg">
<path d="M0.413013 0C0.184919 0 0 0.188882 0 0.421875V4.07813C0 5.24312 0.924597 6.1875 2.06506 6.1875H9.5897L7.54153 8.27984C7.3949 8.42957 7.38157 8.66397 7.50154 8.82912L7.54153 8.87642C7.68815 9.02622 7.91761 9.03983 8.07929 8.91726L8.12562 8.87642L10.879 6.06392C11.0257 5.91419 11.039 5.67979 10.919 5.51464L10.879 5.46733L8.12562 2.65482C7.96432 2.49007 7.70282 2.49007 7.54153 2.65482C7.3949 2.80459 7.38157 3.03896 7.50154 3.20412L7.54153 3.25144L9.5897 5.34375H2.06506C1.40931 5.34375 0.872502 4.82333 0.828888 4.16475L0.826025 4.07813V0.421875C0.826025 0.188882 0.641106 0 0.413013 0Z" fill="#0E0E0E" fill-opacity="0.7"/>
</svg>
